<?xml version="1.0" encoding="UTF-8" standalone="no"?>
<!-- Created with Inkscape (http://www.inkscape.org/) -->
<svg id="svg2" xmlns:inkscape="http://www.inkscape.org/namespaces/inkscape" xmlns:rdf="http://www.w3.org/1999/02/22-rdf-syntax-ns#" xmlns="http://www.w3.org/2000/svg" sodipodi:docname="under-construction.svg" height="32mm" width="32mm" version="1.1" xmlns:cc="http://creativecommons.org/ns#" xmlns:dc="http://purl.org/dc/elements/1.1/" inkscape:version="0.91 r13725" viewBox="0 0 113.38583 113.38583" xmlns:sodipodi="http://sodipodi.sourceforge.net/DTD/sodipodi-0.dtd">
 <sodipodi:namedview id="base" bordercolor="#666666" inkscape:pageshadow="2" inkscape:window-y="0" pagecolor="#ffffff" inkscape:window-height="1778" inkscape:window-maximized="1" inkscape:zoom="2.5179017" inkscape:window-x="3360" showgrid="false" borderopacity="1.0" inkscape:current-layer="layer1" inkscape:cx="56.692913" inkscape:cy="56.692913" inkscape:window-width="3200" showborder="true" inkscape:pageopacity="0.0" inkscape:document-units="px"/>
 <metadata id="metadata7">
  <rdf:RDF>
   <cc:Work rdf:about="">
    <dc:format>image/svg+xml</dc:format>
    <dc:type rdf:resource="http://purl.org/dc/dcmitype/StillImage"/>
    <dc:title/>
   </cc:Work>
  </rdf:RDF>
 </metadata>
 <g id="layer1" inkscape:label="Layer 1" inkscape:groupmode="layer" transform="translate(0 -939)">
  <path id="rect4184" style="color-rendering:auto;text-decoration-color:#000000;color:#000000;shape-rendering:auto;solid-color:#000000;text-decoration-line:none;mix-blend-mode:normal;block-progression:tb;text-indent:0;image-rendering:auto;white-space:normal;text-decoration-style:solid;isolation:auto;text-transform:none" d="m57.4-0.05469c-1.72 0-3.46 0.6666-4.77 1.965l-42.64 42.29c-2.614 2.6-2.614 6.92 0.004 9.52l18.55 18.39h57.73l18.53-18.39c2.6-2.6 2.6-6.92 0-9.52l-42.63-42.29c-1.31-1.298-3.05-1.965-4.77-1.965zm0 5.078c0.43 0 0.85 0.153 1.19 0.493l42.61 42.28c0.7 0.68 0.7 1.63 0 2.31l-20.03 19.9h-47.54l-20.06-19.9c-0.69-0.68-0.69-1.63 0-2.31l42.64-42.28c0.34-0.344 0.76-0.497 1.19-0.497z" transform="translate(0 939)"/>
  <path id="rect4190" style="fill:#fc0" d="m57.4 4.172c-1.04 0-2.08 0.394-2.87 1.183l-41.09 40.76c-1.6 1.57-1.6 4.11 0 5.69l20.46 20.3h47l20.5-20.3c1.6-1.58 1.6-4.12 0-5.7l-41.13-40.76c-0.79-0.784-1.83-1.178-2.87-1.178z" transform="translate(0 939)"/>
  <g id="g3" transform="matrix(2.799 0 0 2.776 35.01 963.8)">
   <path id="path5" style="fill:none" inkscape:connector-curvature="0" d="m14.72 13.56c0.06 0.059 0.154 0.059 0.214 0 0.059-0.06 0.059-0.154 0-0.213l-3.95-3.946c-0.061-0.058-0.154-0.058-0.214 0-0.059 0.059-0.06 0.154 0 0.213l3.946 3.947z"/>
   <path id="path7" style="fill:none" inkscape:connector-curvature="0" d="m9.354 11.03 3.947 3.947c0.059 0.059 0.154 0.059 0.213 0 0.06-0.06 0.06-0.154 0-0.213l-3.943-3.95c-0.058-0.058-0.151-0.058-0.211 0-0.06 0.059-0.06 0.155-0.002 0.213z"/>
   <path id="path9" style="fill:none" inkscape:connector-curvature="0" d="m14.01 14.27c0.06 0.059 0.155 0.059 0.214 0 0.059-0.06 0.059-0.154 0-0.213l-3.946-3.947c-0.061-0.058-0.154-0.06-0.214 0-0.06 0.059-0.06 0.154 0 0.213l3.946 3.947z"/>
   <polygon id="polygon11" style="fill:#231f20" points="2.361 3.154 6.29 7.082 7.038 6.343 3.104 2.41 2.623 1.396 0.744 0.05 0 0.793 1.347 2.67"/>
   <path id="path13" style="fill:#231f20" inkscape:connector-curvature="0" d="m8.466 11.12 4.462 4.464c0.723 0.548 1.77 0.482 2.428-0.177 0.658-0.658 0.725-1.705 0.177-2.426l-4.47-4.467c-0.03 0.035-0.07 0.062-0.11 0.088l-2.384 2.359c-0.029 0.06-0.061 0.11-0.11 0.16zm2.304-1.716c0.06-0.058 0.153-0.058 0.214 0l3.946 3.947c0.059 0.059 0.059 0.153 0 0.213-0.06 0.059-0.154 0.059-0.214 0l-3.95-3.943c-0.06-0.058-0.059-0.154 0-0.213zm-0.708 0.707c0.06-0.06 0.152-0.058 0.211 0l3.947 3.947c0.06 0.059 0.06 0.153 0 0.213-0.059 0.059-0.154 0.059-0.213 0l-3.95-3.95c-0.057-0.058-0.057-0.154 0.002-0.213zm-0.496 0.707 3.947 3.947c0.06 0.059 0.06 0.153 0 0.213-0.059 0.059-0.154 0.059-0.213 0l-3.947-3.95c-0.059-0.059-0.059-0.154 0.002-0.213 0.06-0.057 0.155-0.057 0.211 0z"/>
   <path id="path15" style="fill:#231f20" inkscape:connector-curvature="0" d="m15.96 3.885-1.752 0.69-0.978 0.382-1.24-1.031 0.291-1.59 2.979-1.091c-0.3-0.292-0.65-0.52-1.05-0.681-0.14-0.061-0.28-0.103-0.43-0.141-0.26-0.065-0.52-0.103-0.79-0.103-0.44 0-0.85 0.085-1.25 0.256-0.39 0.169-0.72 0.399-1.02 0.689-0.29 0.29-0.52 0.635-0.69 1.03-0.169 0.401-0.253 0.821-0.253 1.26 0.004 0.236 0.041 0.494 0.104 0.768l-8.965 8.867c-0.632 0.632-0.632 1.656-0.002 2.287 0.633 0.631 1.656 0.631 2.288 0l5.308-5.25v0.001l1.681-1.661c0-0.001-0.001-0.001-0.001-0.001l1.94-1.921 0.034 0.035c0.296 0.077 0.582 0.114 0.854 0.114 0.418 0 0.811-0.075 1.178-0.223 0.365-0.148 0.689-0.352 0.976-0.613 0.285-0.259 0.521-0.567 0.7-0.921 0.183-0.352 0.13-0.869 0.084-1.152zm-13.9 11.22c-0.377 0-0.685-0.308-0.685-0.687 0-0.376 0.308-0.683 0.685-0.683 0.378 0 0.685 0.307 0.685 0.683 0 0.38-0.307 0.687-0.685 0.687z"/>
  </g>
  <g id="text4192" transform="scale(1.046 .9561)">
   <path id="path4361" style="" d="m14.11 1091h-3.317v-2.222q0-0.969-0.1103-1.205-0.1024-0.2442-0.4648-0.2442-0.4097 0-0.52 0.2915t-0.1103 1.26v5.924q0 0.9296 0.1103 1.213 0.1103 0.2836 0.4963 0.2836 0.3703 0 0.4806-0.2836 0.1182-0.2836 0.1182-1.331v-1.599h3.317v0.4963q0 1.977-0.2836 2.805-0.2757 0.8272-1.237 1.45-0.9532 0.6224-2.356 0.6224-1.457 0-2.403-0.5278-0.9454-0.5278-1.253-1.458-0.3072-0.9375-0.3072-2.812v-3.726q0-1.379 0.09454-2.064 0.09454-0.6933 0.5593-1.331 0.4727-0.6381 1.3-1 0.8351-0.3703 1.914-0.3703 1.465 0 2.419 0.5672 0.9532 0.5673 1.253 1.418 0.2994 0.8429 0.2994 2.631v1.213z"/>
   <path id="path4363" d="m22.9 1093q0 1.922-0.09454 2.726-0.08666 0.7957-0.5672 1.457-0.4727 0.6618-1.284 1.016-0.8114 0.3545-1.891 0.3545-1.024 0-1.843-0.3309-0.8114-0.3387-1.308-1.008-0.4963-0.6696-0.5909-1.457-0.09454-0.7878-0.09454-2.757v-2.182q0-1.922 0.08666-2.718 0.09454-0.8035 0.5672-1.465 0.4806-0.6618 1.292-1.016 0.8114-0.3545 1.891-0.3545 1.024 0 1.836 0.3388 0.8193 0.3309 1.316 1 0.4963 0.6696 0.5909 1.457 0.09454 0.7878 0.09454 2.757v2.182zm-3.317-4.191q0-0.8902-0.1024-1.134-0.09454-0.2521-0.4018-0.2521-0.26 0-0.4018 0.2048-0.1339 0.197-0.1339 1.182v5.956q0 1.111 0.08666 1.371 0.09454 0.26 0.4254 0.26 0.3388 0 0.4333-0.2993 0.09454-0.2994 0.09454-1.426v-5.861z"/>
   <path id="path4365" d="m31.52 1086v12.75h-2.907l-1.725-5.798v5.798h-2.773v-12.75h2.773l1.859 5.743v-5.743h2.773z"/>
   <path id="path4367" d="m39.87 1090h-3.08v-0.9453q0-0.6618-0.1182-0.843t-0.3939-0.1812q-0.2994 0-0.4569 0.2442-0.1497 0.2442-0.1497 0.7406 0 0.6381 0.1733 0.9611 0.1654 0.323 0.9375 0.7799 2.214 1.316 2.789 2.159 0.5751 0.843 0.5751 2.718 0 1.363-0.323 2.009-0.3151 0.646-1.229 1.087-0.9139 0.4333-2.127 0.4333-1.331 0-2.277-0.5042-0.9375-0.5042-1.229-1.284-0.2915-0.7799-0.2915-2.214v-0.8351h3.08v1.552q0 0.7169 0.126 0.9217 0.1339 0.2048 0.4648 0.2048t0.4884-0.26q0.1654-0.2599 0.1654-0.772 0-1.127-0.3072-1.473-0.3151-0.3466-1.552-1.158-1.237-0.8193-1.639-1.19-0.4018-0.3702-0.6696-1.024-0.26-0.6539-0.26-1.67 0-1.465 0.3703-2.143 0.3781-0.6775 1.213-1.056 0.8351-0.386 2.017-0.386 1.292 0 2.198 0.4176 0.9139 0.4175 1.205 1.056 0.2994 0.6303 0.2994 2.151v0.5042z"/>
   <path id="path4369" d="m47.87 1086v2.552h-1.97v10.2h-3.317v-10.2h-1.962v-2.552h7.248z"/>
   <path id="path4371" d="m48.63 1086h2.348q2.348 0 3.175 0.1812 0.8351 0.1812 1.355 0.9296 0.5278 0.7405 0.5278 2.371 0 1.489-0.3703 2.001-0.3703 0.5121-1.457 0.6145 0.9848 0.2442 1.324 0.6539 0.3388 0.4096 0.4175 0.7563 0.08666 0.3387 0.08666 1.883v3.364h-3.08v-4.238q0-1.024-0.1654-1.268-0.1576-0.2442-0.843-0.2442v5.751h-3.317v-12.75zm3.317 2.182v2.836q0.5593 0 0.7799-0.1497 0.2285-0.1575 0.2285-1v-0.7011q0-0.6067-0.2206-0.7957-0.2127-0.1891-0.7878-0.1891z"/>
   <path id="path4373" d="m64.87 1086v8.524q0 1.45-0.09454 2.04-0.09454 0.5829-0.5593 1.205-0.4648 0.6145-1.229 0.9375-0.7563 0.3151-1.788 0.3151-1.142 0-2.017-0.3781-0.8745-0.3782-1.308-0.9848-0.4333-0.6066-0.5121-1.276-0.07878-0.6776-0.07878-2.836v-7.547h3.317v9.564q0 0.8351 0.08666 1.072 0.09454 0.2284 0.3703 0.2284 0.3151 0 0.4018-0.2521 0.09454-0.26 0.09454-1.213v-9.398h3.317z"/>
   <path id="path4375" d="m73.89 1091h-3.317v-2.222q0-0.969-0.1103-1.205-0.1024-0.2442-0.4648-0.2442-0.4097 0-0.52 0.2915t-0.1103 1.26v5.924q0 0.9296 0.1103 1.213 0.1103 0.2836 0.4963 0.2836 0.3703 0 0.4806-0.2836 0.1182-0.2836 0.1182-1.331v-1.599h3.317v0.4963q0 1.977-0.2836 2.805-0.2757 0.8272-1.237 1.45-0.9532 0.6224-2.356 0.6224-1.457 0-2.403-0.5278-0.9454-0.5278-1.253-1.458-0.3072-0.9375-0.3072-2.812v-3.726q0-1.379 0.09454-2.064 0.09454-0.6933 0.5593-1.331 0.4727-0.6381 1.3-1 0.8351-0.3703 1.914-0.3703 1.465 0 2.419 0.5672 0.9532 0.5673 1.253 1.418 0.2994 0.8429 0.2994 2.631v1.213z"/>
   <path id="path4377" d="m81.78 1086v2.552h-1.97v10.2h-3.317v-10.2h-1.962v-2.552h7.248z"/>
   <path id="path4379" d="m85.85 1086v12.75h-3.317v-12.75h3.317z"/>
   <path id="path4381" d="m94.75 1093q0 1.922-0.09454 2.726-0.08666 0.7957-0.5672 1.457-0.4727 0.6618-1.284 1.016-0.8114 0.3545-1.891 0.3545-1.024 0-1.843-0.3309-0.8114-0.3387-1.308-1.008-0.4963-0.6696-0.5909-1.457-0.09454-0.7878-0.09454-2.757v-2.182q0-1.922 0.08666-2.718 0.09454-0.8035 0.5672-1.465 0.4806-0.6618 1.292-1.016 0.8114-0.3545 1.891-0.3545 1.024 0 1.836 0.3388 0.8193 0.3309 1.316 1 0.4963 0.6696 0.5909 1.457 0.09454 0.7878 0.09454 2.757v2.182zm-3.317-4.191q0-0.8902-0.1024-1.134-0.09454-0.2521-0.4018-0.2521-0.26 0-0.4018 0.2048-0.1339 0.197-0.1339 1.182v5.956q0 1.111 0.08666 1.371 0.09454 0.26 0.4254 0.26 0.3388 0 0.4333-0.2993 0.09454-0.2994 0.09454-1.426v-5.861z"/>
   <path id="path4383" d="m103.4 1086v12.75h-2.907l-1.725-5.798v5.798h-2.773v-12.75h2.773l1.859 5.743v-5.743h2.773z"/>
  </g>
  <rect id="rect4305" style="fill:#fff" height="44.68" width="4.623" y="966.7" x="109"/>
  <g id="text4213" transform="scale(1.189 .8412)">
   <path id="path4350" d="m22.13 1205v17.78q0 3.023-0.1972 4.255-0.1972 1.216-1.167 2.514-0.9694 1.282-2.563 1.955-1.577 0.6572-3.73 0.6572-2.382 0-4.206-0.7886-1.824-0.7887-2.727-2.054-0.9037-1.265-1.068-2.662-0.1643-1.413-0.1643-5.915v-15.74h6.917v19.95q0 1.742 0.1807 2.234 0.1972 0.4765 0.7722 0.4765 0.6572 0 0.838-0.5258 0.1972-0.5422 0.1972-2.53v-19.6h6.917z"/>
   <path id="path4352" d="m40.25 1205v26.6h-6.063l-3.598-12.09v12.09h-5.783v-26.6h5.783l3.878 11.98v-11.98h5.783z"/>
   <path id="path4354" d="m43.01 1205h5.176q5.011 0 6.769 0.4601 1.774 0.46 2.695 1.512 0.9201 1.052 1.15 2.35 0.23 1.282 0.23 5.061v9.316q0 3.582-0.345 4.798-0.3286 1.2-1.167 1.89-0.8379 0.6737-2.07 0.953-1.232 0.2629-3.713 0.2629h-8.725v-26.6zm6.917 4.551v17.5q1.495 0 1.84-0.5915 0.345-0.6079 0.345-3.27v-10.33q0-1.807-0.115-2.317-0.115-0.5093-0.5258-0.7393-0.4108-0.2465-1.544-0.2465z"/>
   <path id="path4356" d="m61.61 1205h11.53v5.323h-4.617v5.044h4.321v5.06h-4.321v5.849h5.077v5.324h-11.99v-26.6z"/>
   <path id="path4358" d="m75.61 1205h4.896q4.896 0 6.621 0.3779 1.742 0.3779 2.826 1.939 1.101 1.544 1.101 4.946 0 3.105-0.7722 4.173t-3.04 1.282q2.054 0.5094 2.76 1.364 0.7065 0.8544 0.8708 1.577 0.1807 0.7065 0.1807 3.927v7.016h-6.424v-8.84q0-2.136-0.345-2.645-0.3286-0.5094-1.758-0.5094v11.99h-6.917v-26.6zm6.917 4.551v5.915q1.167 0 1.627-0.3122 0.4765-0.3286 0.4765-2.087v-1.462q0-1.265-0.4601-1.659-0.4436-0.3944-1.643-0.3944z"/>
  </g>
 </g>
</svg>
